<svg width="16" height="16" viewBox="0 0 16 16" fill="none" xmlns="http://www.w3.org/2000/svg">
<g clip-path="url(#clip0_854_22531)">
<path d="M10.0007 7.99992V11.9999M8.00065 9.99992H12.0007M2.66732 10.6666C1.93398 10.6666 1.33398 10.0666 1.33398 9.33325V2.66659C1.33398 1.93325 1.93398 1.33325 2.66732 1.33325H9.33398C10.0673 1.33325 10.6673 1.93325 10.6673 2.66659M6.66732 5.33325H13.334C14.0704 5.33325 14.6673 5.93021 14.6673 6.66658V13.3333C14.6673 14.0696 14.0704 14.6666 13.334 14.6666H6.66732C5.93094 14.6666 5.33398 14.0696 5.33398 13.3333V6.66658C5.33398 5.93021 5.93094 5.33325 6.66732 5.33325Z" stroke="currentColor" stroke-width="1.5" stroke-linecap="round" stroke-linejoin="round"/>
</g>
<defs>
<clipPath id="clip0_854_22531">
<rect width="16" height="16" fill="white"/>
</clipPath>
</defs>
</svg>
