<svg width="16" height="16" viewBox="0 0 16 16" fill="none" xmlns="http://www.w3.org/2000/svg">
<path d="M8.00065 10.6667V14M10.6673 9.33333V14M13.334 6.66667V14M14.6673 2L8.90332 7.764C8.87235 7.79504 8.83557 7.81967 8.79507 7.83647C8.75458 7.85328 8.71116 7.86193 8.66732 7.86193C8.62347 7.86193 8.58006 7.85328 8.53956 7.83647C8.49907 7.81967 8.46228 7.79504 8.43132 7.764L6.23665 5.56933C6.17414 5.50684 6.08937 5.47174 6.00098 5.47174C5.9126 5.47174 5.82783 5.50684 5.76532 5.56933L1.33398 10M2.66732 12V14M5.33398 9.33333V14" stroke="currentColor" stroke-width="1.5" stroke-linecap="round" stroke-linejoin="round"/>
</svg>
