<svg width="16" height="16" viewBox="0 0 16 16" fill="none" xmlns="http://www.w3.org/2000/svg">
<g clip-path="url(#clip0_854_15323)">
<path d="M3.99967 14.6668V2.66683C3.99967 2.31321 4.14015 1.97407 4.3902 1.72402C4.64025 1.47397 4.97939 1.3335 5.33301 1.3335H10.6663C11.02 1.3335 11.3591 1.47397 11.6091 1.72402C11.8592 1.97407 11.9997 2.31321 11.9997 2.66683V14.6668M3.99967 14.6668H11.9997M3.99967 14.6668H2.66634C2.31272 14.6668 1.97358 14.5264 1.72353 14.2763C1.47348 14.0263 1.33301 13.6871 1.33301 13.3335V9.3335C1.33301 8.97987 1.47348 8.64074 1.72353 8.39069C1.97358 8.14064 2.31272 8.00016 2.66634 8.00016H3.99967M11.9997 14.6668H13.333C13.6866 14.6668 14.0258 14.5264 14.2758 14.2763C14.5259 14.0263 14.6663 13.6871 14.6663 13.3335V7.3335C14.6663 6.97987 14.5259 6.64074 14.2758 6.39069C14.0258 6.14064 13.6866 6.00016 13.333 6.00016H11.9997M6.66634 4.00016H9.33301M6.66634 6.66683H9.33301M6.66634 9.3335H9.33301M6.66634 12.0002H9.33301" stroke="currentColor" stroke-width="1.5" stroke-linecap="round" stroke-linejoin="round"/>
</g>
<defs>
<clipPath id="clip0_854_15323">
<rect width="16" height="16" fill="white"/>
</clipPath>
</defs>
</svg>
