<svg width="14" height="14" viewBox="0 0 14 14" fill="none" xmlns="http://www.w3.org/2000/svg">
<path d="M9.91602 8.16659C10.2382 8.16659 10.4993 7.90542 10.4993 7.58325C10.4993 7.26109 10.2382 6.99992 9.91602 6.99992C9.59385 6.99992 9.33268 7.26109 9.33268 7.58325C9.33268 7.90542 9.59385 8.16659 9.91602 8.16659Z" fill="currentColor"/>
<path d="M9.91602 10.4999C10.2382 10.4999 10.4993 10.2388 10.4993 9.91659C10.4993 9.59442 10.2382 9.33325 9.91602 9.33325C9.59385 9.33325 9.33268 9.59442 9.33268 9.91659C9.33268 10.2388 9.59385 10.4999 9.91602 10.4999Z" fill="currentColor"/>
<path d="M7.58268 7.58325C7.58268 7.90542 7.32152 8.16659 6.99935 8.16659C6.67718 8.16659 6.41602 7.90542 6.41602 7.58325C6.41602 7.26109 6.67718 6.99992 6.99935 6.99992C7.32152 6.99992 7.58268 7.26109 7.58268 7.58325Z" fill="currentColor"/>
<path d="M7.58268 9.91659C7.58268 10.2388 7.32152 10.4999 6.99935 10.4999C6.67718 10.4999 6.41602 10.2388 6.41602 9.91659C6.41602 9.59442 6.67718 9.33325 6.99935 9.33325C7.32152 9.33325 7.58268 9.59442 7.58268 9.91659Z" fill="currentColor"/>
<path d="M4.08268 8.16659C4.40485 8.16659 4.66602 7.90542 4.66602 7.58325C4.66602 7.26109 4.40485 6.99992 4.08268 6.99992C3.76052 6.99992 3.49935 7.26109 3.49935 7.58325C3.49935 7.90542 3.76052 8.16659 4.08268 8.16659Z" fill="currentColor"/>
<path d="M4.08268 10.4999C4.40485 10.4999 4.66602 10.2388 4.66602 9.91659C4.66602 9.59442 4.40485 9.33325 4.08268 9.33325C3.76052 9.33325 3.49935 9.59442 3.49935 9.91659C3.49935 10.2388 3.76052 10.4999 4.08268 10.4999Z" fill="currentColor"/>
<path fill-rule="evenodd" clip-rule="evenodd" d="M4.08268 1.02075C4.32431 1.02075 4.52018 1.21663 4.52018 1.45825V1.90317C4.90635 1.89574 5.33179 1.89575 5.7997 1.89575H8.19893C8.66685 1.89575 9.09235 1.89574 9.47852 1.90317V1.45825C9.47852 1.21663 9.67439 1.02075 9.91602 1.02075C10.1576 1.02075 10.3535 1.21663 10.3535 1.45825V1.94072C10.5051 1.95228 10.6487 1.96681 10.7846 1.98508C11.4685 2.07703 12.0221 2.27077 12.4586 2.70731C12.8952 3.14386 13.0889 3.69741 13.1809 4.38132C13.2702 5.04586 13.2702 5.89497 13.2702 6.96699V8.19949C13.2702 9.27151 13.2702 10.1206 13.1809 10.7852C13.0889 11.4691 12.8952 12.0226 12.4586 12.4592C12.0221 12.8957 11.4685 13.0895 10.7846 13.1814C10.1201 13.2708 9.27096 13.2708 8.19895 13.2708H5.79978C4.72776 13.2708 3.87862 13.2708 3.21409 13.1814C2.53017 13.0895 1.97662 12.8957 1.54007 12.4592C1.10353 12.0226 0.909794 11.4691 0.817844 10.7852C0.728499 10.1206 0.728507 9.27152 0.728516 8.19949V6.96701C0.728507 5.89498 0.728499 5.04586 0.817844 4.38132C0.909794 3.69741 1.10353 3.14386 1.54007 2.70731C1.97662 2.27077 2.53017 2.07703 3.21409 1.98508C3.34996 1.96681 3.49355 1.95228 3.64518 1.94072V1.45825C3.64518 1.21663 3.84106 1.02075 4.08268 1.02075ZM3.33068 2.85228C2.74379 2.93118 2.40567 3.07916 2.15879 3.32603C1.91192 3.5729 1.76395 3.91103 1.68504 4.49791C1.67168 4.59731 1.66051 4.70194 1.65116 4.81242H12.3475C12.3382 4.70194 12.327 4.59731 12.3137 4.49791C12.2348 3.91103 12.0868 3.5729 11.8399 3.32603C11.593 3.07916 11.2549 2.93118 10.668 2.85228C10.0686 2.77168 9.27833 2.77075 8.16602 2.77075H5.83268C4.72037 2.77075 3.93015 2.77168 3.33068 2.85228ZM1.60352 6.99992C1.60352 6.50174 1.6037 6.06818 1.61115 5.68742H12.3876C12.395 6.06818 12.3952 6.50174 12.3952 6.99992V8.16659C12.3952 9.2789 12.3943 10.0691 12.3137 10.6686C12.2348 11.2555 12.0868 11.5936 11.8399 11.8405C11.593 12.0873 11.2549 12.2353 10.668 12.3142C10.0686 12.3948 9.27833 12.3958 8.16602 12.3958H5.83268C4.72037 12.3958 3.93015 12.3948 3.33068 12.3142C2.74379 12.2353 2.40567 12.0873 2.15879 11.8405C1.91192 11.5936 1.76395 11.2555 1.68504 10.6686C1.60445 10.0691 1.60352 9.2789 1.60352 8.16659V6.99992Z" fill="currentColor"/>
</svg>
