<svg width="16" height="16" viewBox="0 0 16 16" fill="none" xmlns="http://www.w3.org/2000/svg">
<path d="M4.08197 11.125H3.48047C3.20497 11.125 2.98047 10.9005 2.98047 10.625V8.625C2.98047 8.349 2.75647 8.125 2.48047 8.125C2.20447 8.125 1.98047 8.349 1.98047 8.625V10.625C1.98047 11.452 2.65347 12.125 3.48047 12.125H4.08197C4.29897 12.845 4.96047 13.375 5.75047 13.375C6.54047 13.375 7.20197 12.845 7.41897 12.125H9.50047H10.582C10.799 12.845 11.4605 13.375 12.2505 13.375C13.0405 13.375 13.702 12.845 13.919 12.125H15.0005C15.2765 12.125 15.5005 11.901 15.5005 11.625V9.125C15.5005 8.7535 15.345 8.2405 15.139 7.9315L13.6935 5.7635C13.4465 5.3935 12.9445 5.125 12.5 5.125H11.098V4.125C11.098 3.298 10.425 2.625 9.59797 2.625H8.00047C7.72447 2.625 7.50047 2.849 7.50047 3.125C7.50047 3.401 7.72447 3.625 8.00047 3.625H9.59847C9.87397 3.625 10.0985 3.8495 10.0985 4.125V11.125H9.50047H7.41897C7.20197 10.405 6.54047 9.875 5.75047 9.875C4.96047 9.875 4.29897 10.405 4.08197 11.125ZM12.2505 12.375C11.837 12.375 11.5005 12.0385 11.5005 11.625C11.5005 11.2115 11.837 10.875 12.2505 10.875C12.664 10.875 13.0005 11.2115 13.0005 11.625C13.0005 12.0385 12.664 12.375 12.2505 12.375ZM11.0985 6.125H12.5005C12.609 6.125 12.8015 6.228 12.862 6.3185L13.733 7.625H11.0985V6.125ZM11.0985 8.625H14.379C14.447 8.7835 14.5005 8.9935 14.5005 9.125V11.125H13.919C13.702 10.405 13.0405 9.875 12.2505 9.875C11.8075 9.875 11.407 10.0455 11.0985 10.318V8.625ZM6.50047 11.625C6.50047 12.0385 6.16397 12.375 5.75047 12.375C5.33697 12.375 5.00047 12.0385 5.00047 11.625C5.00047 11.2115 5.33697 10.875 5.75047 10.875C6.16397 10.875 6.50047 11.2115 6.50047 11.625Z" fill="currentColor"/>
<path d="M7 3.125C7 2.849 6.776 2.625 6.5 2.625H1C0.724 2.625 0.5 2.849 0.5 3.125C0.5 3.401 0.724 3.625 1 3.625H6.5C6.776 3.625 7 3.401 7 3.125Z" fill="currentColor"/>
<path d="M5.5 5.625C5.776 5.625 6 5.401 6 5.125C6 4.849 5.776 4.625 5.5 4.625H2C1.724 4.625 1.5 4.849 1.5 5.125C1.5 5.401 1.724 5.625 2 5.625H5.5Z" fill="currentColor"/>
<path d="M4.5 7.625C4.776 7.625 5 7.401 5 7.125C5 6.849 4.776 6.625 4.5 6.625H3C2.724 6.625 2.5 6.849 2.5 7.125C2.5 7.401 2.724 7.625 3 7.625H4.5Z" fill="currentColor"/>
</svg>
