<svg width="80" height="80" viewBox="0 0 80 80" fill="none" xmlns="http://www.w3.org/2000/svg">
<path d="M34.8765 8.40683C37.2148 4.57013 42.7852 4.57013 45.1235 8.40683L48.7383 14.3382C49.9686 16.3569 52.2696 17.465 54.615 17.1682L61.5061 16.2963C65.9636 15.7323 69.4368 20.0874 67.895 24.3077L65.5115 30.832C64.7002 33.0525 65.2686 35.5424 66.9629 37.1911L71.9411 42.0351C75.1613 45.1685 73.9218 50.5993 69.661 52.0252L63.074 54.2295C60.8321 54.9798 59.2398 56.9765 59.0072 59.3291L58.3239 66.2415C57.8819 70.7127 52.863 73.1297 49.0917 70.6875L43.2613 66.9119C41.277 65.6269 38.723 65.6269 36.7387 66.9119L30.9083 70.6875C27.137 73.1297 22.1181 70.7127 21.6761 66.2415L20.9928 59.3291C20.7602 56.9765 19.1679 54.9798 16.926 54.2295L10.339 52.0252C6.0782 50.5993 4.83866 45.1685 8.05885 42.0351L13.0371 37.1911C14.7314 35.5424 15.2997 33.0525 14.4885 30.832L12.105 24.3077C10.5632 20.0874 14.0364 15.7323 18.4939 16.2963L25.385 17.1682C27.7304 17.465 30.0314 16.3569 31.2617 14.3382L34.8765 8.40683Z" fill="#EAF9FF"/>
<path d="M40.4995 50V41M48.4995 41V44.87C48.4999 45.2474 48.3966 45.6177 48.2009 45.9405C48.0051 46.2632 47.7244 46.5259 47.3895 46.7L41.3895 49.78C41.1146 49.9229 40.8094 49.9975 40.4995 49.9975C40.1897 49.9975 39.8844 49.9229 39.6095 49.78L33.6095 46.7C33.2746 46.5259 32.994 46.2632 32.7982 45.9405C32.6025 45.6177 32.4991 45.2474 32.4995 44.87V41M43.6695 30.21C43.9186 30.0707 44.1992 29.9976 44.4845 29.9976C44.7699 29.9976 45.0505 30.0707 45.2995 30.21L49.4995 32.57C49.797 32.7382 50.0444 32.9824 50.2166 33.2775C50.3888 33.5727 50.4795 33.9083 50.4795 34.25C50.4795 34.5917 50.3888 34.9273 50.2166 35.2225C50.0444 35.5176 49.797 35.7618 49.4995 35.93L37.3195 42.79C37.0697 42.9325 36.7871 43.0074 36.4995 43.0074C36.2119 43.0074 35.9293 42.9325 35.6795 42.79L31.4995 40.43C31.2021 40.2618 30.9546 40.0176 30.7824 39.7225C30.6103 39.4273 30.5195 39.0917 30.5195 38.75C30.5195 38.4083 30.6103 38.0727 30.7824 37.7775C30.9546 37.4824 31.2021 37.2382 31.4995 37.07L43.6695 30.21ZM49.4995 40.43C49.797 40.2618 50.0444 40.0176 50.2166 39.7225C50.3888 39.4273 50.4795 39.0917 50.4795 38.75C50.4795 38.4083 50.3888 38.0727 50.2166 37.7775C50.0444 37.4824 49.797 37.2382 49.4995 37.07L37.3295 30.2C37.0814 30.0579 36.8005 29.9832 36.5145 29.9832C36.2286 29.9832 35.9477 30.0579 35.6995 30.2L31.4995 32.57C31.2021 32.7382 30.9546 32.9824 30.7824 33.2775C30.6103 33.5727 30.5195 33.9083 30.5195 34.25C30.5195 34.5917 30.6103 34.9273 30.7824 35.2225C30.9546 35.5176 31.2021 35.7618 31.4995 35.93L43.6795 42.79C43.9275 42.9325 44.2085 43.0075 44.4945 43.0075C44.7805 43.0075 45.0615 42.9325 45.3095 42.79L49.4995 40.43Z" stroke="#00BFFF" stroke-width="2.27109" stroke-linecap="round" stroke-linejoin="round"/>
</svg>
