<svg width="16" height="16" viewBox="0 0 16 16" fill="none" xmlns="http://www.w3.org/2000/svg">
<path d="M13.3327 4.66675H7.33268M9.33268 11.3334H3.33268M9.33268 11.3334C9.33268 12.438 10.2281 13.3334 11.3327 13.3334C12.4373 13.3334 13.3327 12.438 13.3327 11.3334C13.3327 10.2288 12.4373 9.33341 11.3327 9.33341C10.2281 9.33341 9.33268 10.2288 9.33268 11.3334ZM6.66602 4.66675C6.66602 5.77132 5.77059 6.66675 4.66602 6.66675C3.56145 6.66675 2.66602 5.77132 2.66602 4.66675C2.66602 3.56218 3.56145 2.66675 4.66602 2.66675C5.77059 2.66675 6.66602 3.56218 6.66602 4.66675Z" stroke="currentColor" stroke-width="1.5" stroke-linecap="round" stroke-linejoin="round"/>
</svg>
