<svg width="16" height="16" viewBox="0 0 16 16" fill="none" xmlns="http://www.w3.org/2000/svg">
<path d="M13.9124 15.4204H12.6506C12.4002 15.4201 12.1575 15.3335 11.9634 15.1752C11.7694 15.0169 11.6358 14.7966 11.5852 14.5513H6.26295C5.82716 14.5524 5.39545 14.4672 4.99282 14.3005C4.59019 14.1337 4.22462 13.8888 3.91725 13.5798L1.50175 11.1641C1.19991 10.8545 1.02641 10.4422 1.01611 10.01C1.00581 9.57782 1.15948 9.15772 1.44624 8.83417C1.73299 8.51062 2.13158 8.3076 2.5619 8.26589C2.99222 8.22419 3.42237 8.34691 3.76592 8.60938L5.50172 9.9785C5.62273 9.70535 5.8214 9.47381 6.073 9.31272C6.3246 9.15162 6.61803 9.06809 6.91675 9.0725C7.38533 9.05945 8.13467 9.14195 8.4607 8.92089C8.93842 8.63398 9.47423 8.45748 10.0289 8.4043C10.5836 8.35112 11.1432 8.42259 11.6668 8.6135C11.7548 8.42694 11.894 8.26922 12.0682 8.15871C12.2424 8.04819 12.4444 7.98942 12.6506 7.98923H13.9124C14.2006 7.98954 14.477 8.10417 14.6808 8.30798C14.8847 8.51179 14.9994 8.78813 14.9998 9.07639V14.3333C14.9994 14.6215 14.8847 14.8979 14.6808 15.1017C14.477 15.3055 14.2006 15.4201 13.9124 15.4204ZM12.5633 14.0513V14.3333C12.5633 14.3447 12.5655 14.3561 12.5699 14.3667C12.5743 14.3772 12.5808 14.3869 12.5889 14.395C12.597 14.4031 12.6066 14.4095 12.6172 14.4138C12.6278 14.4182 12.6392 14.4204 12.6507 14.4204H13.9124C13.9238 14.4204 13.9352 14.4182 13.9458 14.4138C13.9564 14.4095 13.966 14.4031 13.9741 14.395C13.9822 14.3869 13.9887 14.3772 13.9931 14.3667C13.9975 14.3561 13.9998 14.3447 13.9998 14.3333V9.07642C13.9998 9.06495 13.9975 9.05361 13.9931 9.04302C13.9887 9.03244 13.9822 9.02283 13.9741 9.01473C13.966 9.00664 13.9564 9.00022 13.9458 8.99585C13.9352 8.99148 13.9238 8.98924 13.9124 8.98926H12.6506C12.6392 8.98924 12.6278 8.99148 12.6172 8.99585C12.6066 9.00022 12.597 9.00664 12.5889 9.01473C12.5808 9.02283 12.5743 9.03244 12.5699 9.04302C12.5655 9.05361 12.5633 9.06495 12.5632 9.07642L12.5633 14.0513ZM2.72144 9.23804C2.57989 9.23816 2.44153 9.28016 2.32378 9.35873C2.20603 9.43731 2.11416 9.54896 2.05972 9.67963C2.00527 9.8103 1.9907 9.95415 2.01782 10.0931C2.04494 10.232 2.11255 10.3598 2.21214 10.4604L4.62425 12.8728C5.05998 13.3057 5.64873 13.5494 6.26292 13.5513H11.5633V9.65454C11.16 9.45996 10.715 9.36801 10.2677 9.38688C9.82039 9.40575 9.38468 9.53485 8.99929 9.7627C8.46586 10.0366 7.86278 10.145 7.26735 10.074C7.15114 10.072 7.03981 10.0703 6.93923 10.0723C6.78438 10.0727 6.63602 10.1345 6.5268 10.2443C6.41758 10.3541 6.35643 10.5027 6.35682 10.6576C6.35721 10.8124 6.4191 10.9608 6.52887 11.07C6.63864 11.1792 6.7873 11.2404 6.94215 11.24L9.20289 11.2398C9.33427 11.2416 9.45965 11.2951 9.5519 11.3887C9.64415 11.4822 9.69587 11.6084 9.69587 11.7398C9.69587 11.8712 9.64415 11.9973 9.5519 12.0908C9.45965 12.1844 9.33427 12.2379 9.20289 12.2398H6.92848C6.60615 12.2451 6.2903 12.1489 6.02559 11.9649C5.76088 11.7809 5.56071 11.5184 5.45338 11.2144L3.15064 9.39746C3.02965 9.29744 2.8784 9.24126 2.72144 9.23804ZM10.5193 7.95386H5.48121C5.17155 7.95351 4.87468 7.83035 4.65572 7.61138C4.43676 7.39242 4.3136 7.09555 4.31325 6.78589V1.7478C4.31359 1.43812 4.43674 1.14121 4.6557 0.922207C4.87465 0.703203 5.17154 0.579988 5.48122 0.57959H10.5193C10.829 0.579991 11.1259 0.703207 11.3448 0.922211C11.5638 1.14121 11.6869 1.43812 11.6873 1.7478V6.78589C11.6869 7.09555 11.5638 7.39242 11.3448 7.61138C11.1258 7.83035 10.829 7.95351 10.5193 7.95386ZM5.48121 1.57959C5.43664 1.57964 5.39391 1.59739 5.36241 1.62893C5.33092 1.66048 5.31323 1.70323 5.31324 1.7478V6.78589C5.31328 6.83043 5.33099 6.87313 5.36248 6.90462C5.39397 6.93611 5.43667 6.95382 5.48121 6.95386H10.5193C10.5638 6.95382 10.6065 6.93611 10.638 6.90462C10.6695 6.87313 10.6872 6.83043 10.6873 6.78589V1.7478C10.6873 1.70323 10.6696 1.66048 10.6381 1.62893C10.6066 1.59739 10.5639 1.57964 10.5193 1.57959H9.33033V2.74096C9.32922 2.86172 9.29754 2.98024 9.23826 3.08545C9.17898 3.19066 9.09402 3.27915 8.99131 3.34267C8.8886 3.40619 8.77147 3.44267 8.65086 3.4487C8.53024 3.45474 8.41006 3.43014 8.30152 3.37719C8.202 3.32862 8.09225 3.30469 7.98154 3.30742C7.87083 3.31016 7.7624 3.33948 7.66539 3.39291C7.55699 3.43808 7.43916 3.45601 7.32222 3.44511C7.20528 3.43421 7.0928 3.39483 6.9946 3.3304C6.89641 3.26597 6.81549 3.17847 6.75894 3.07553C6.70239 2.9726 6.67192 2.85738 6.67019 2.73995C6.67019 2.70195 6.67019 1.57959 6.67019 1.57959H5.48121ZM7.67017 1.57959V2.33984C7.88808 2.29638 8.11243 2.29638 8.33033 2.33984V1.57959H7.67017ZM7.27125 6.22973H6.46705C6.33567 6.22788 6.2103 6.17438 6.11805 6.08081C6.02579 5.98725 5.97408 5.86113 5.97408 5.72973C5.97408 5.59834 6.02579 5.47222 6.11805 5.37866C6.2103 5.28509 6.33567 5.23159 6.46705 5.22973H7.27125C7.40264 5.23159 7.52801 5.28509 7.62026 5.37866C7.71252 5.47222 7.76423 5.59834 7.76423 5.72973C7.76423 5.86113 7.71252 5.98725 7.62026 6.08081C7.52801 6.17438 7.40264 6.22788 7.27125 6.22973Z" fill="currentColor"/>
</svg>
