<svg viewBox="0 0 99 32" fill="none" xmlns="http://www.w3.org/2000/svg">
<g clip-path="url(#clip0_421_15151)">
<path fill-rule="evenodd" clip-rule="evenodd" d="M19.6732 21.3325H12.27C11.377 21.3325 10.6485 22.0647 10.6485 22.9569V30.3732C10.6485 31.2678 11.3794 31.9976 12.27 31.9976H19.8257C20.8953 31.9976 21.5851 31.7091 22.3353 30.9551L30.905 22.3702C31.6504 21.6235 31.9456 20.9616 31.9456 19.856V12.287C31.9456 11.3924 31.2148 10.6626 30.3242 10.6626H22.921C22.028 10.6626 21.2995 11.3948 21.2995 12.287V19.7033C21.2995 20.5979 20.5686 21.3277 19.678 21.3277M41.568 29.418C41.1397 29.418 40.75 29.2652 40.4911 28.9113V29.3307H39.9272V25.2262H40.5516V26.8578C40.8226 26.5596 41.1566 26.4238 41.5584 26.4238C42.4078 26.4238 42.979 27.093 42.979 27.9197C42.979 28.7464 42.4199 29.4156 41.568 29.4156V29.418ZM41.4543 28.8628C42.0061 28.8628 42.3546 28.4628 42.3546 27.9221C42.3546 27.3815 42.0158 26.9814 41.4543 26.9814C40.8928 26.9814 40.5516 27.3766 40.5516 27.9221C40.5516 28.4676 40.9001 28.8628 41.4543 28.8628ZM43.8212 30.6108C43.6082 30.6108 43.4146 30.5672 43.2282 30.4605L43.371 29.9247C43.4775 29.9926 43.6251 30.0386 43.7534 30.0386C44.0269 30.0386 44.1624 29.9053 44.2447 29.6532L44.3391 29.3792L43.2282 26.5111H43.9131L44.6924 28.7004L45.4523 26.5111H46.1155L44.8981 29.7404C44.6948 30.2641 44.4141 30.6108 43.8188 30.6108H43.8212ZM48.0854 29.3331V25.3425H49.5278C50.2926 25.3425 50.9726 25.7329 50.9726 26.5717C50.9726 27.4615 50.3192 27.7936 49.5133 27.7936H48.7219V29.3331H48.0854ZM48.7219 27.2457H49.5206C49.9635 27.2457 50.3337 27.0833 50.3337 26.5838C50.3337 26.0844 49.9659 25.9001 49.5254 25.9001H48.7195V27.2457H48.7219ZM51.6091 29.3331V26.5111H52.2359V26.9014C52.3424 26.7244 52.4707 26.6008 52.6232 26.5281C52.7756 26.4578 52.9378 26.4214 53.112 26.4214C53.2161 26.4214 53.3202 26.4311 53.4218 26.4553L53.3395 27.1027C53.2258 27.0687 53.1072 27.0469 52.9886 27.0469C52.5385 27.0469 52.2335 27.3403 52.2335 27.7936V29.3307H51.6067L51.6091 29.3331ZM55.1716 29.418C54.3245 29.418 53.6469 28.7779 53.6469 27.9221C53.6469 27.0663 54.3342 26.4262 55.174 26.4262C56.0138 26.4262 56.6987 27.0639 56.6987 27.9221C56.6987 28.7804 56.0138 29.418 55.1716 29.418ZM55.1716 28.8628C55.7258 28.8628 56.0743 28.4652 56.0743 27.9221C56.0743 27.379 55.7282 26.9814 55.1716 26.9814C54.6149 26.9814 54.2713 27.3766 54.2713 27.9221C54.2713 28.4676 54.6198 28.8628 55.1716 28.8628ZM58.9687 29.418C58.538 29.418 58.1507 29.2652 57.8918 28.9113V29.3307H57.3279V25.2262H57.9499V26.8578C58.2209 26.5596 58.5549 26.4238 58.9566 26.4238C59.8061 26.4238 60.3772 27.093 60.3772 27.9197C60.3772 28.7464 59.8206 29.4156 58.9663 29.4156L58.9687 29.418ZM58.855 28.8628C59.4068 28.8628 59.7553 28.4628 59.7553 27.9221C59.7553 27.3815 59.4165 26.9814 58.855 26.9814C58.2935 26.9814 57.9523 27.3766 57.9523 27.9221C57.9523 28.4676 58.3008 28.8628 58.855 28.8628ZM62.3206 29.418C61.4736 29.418 60.7959 28.7779 60.7959 27.9221C60.7959 27.0663 61.4857 26.4262 62.3254 26.4262C63.1652 26.4262 63.8501 27.0639 63.8501 27.9221C63.8501 28.7804 63.1652 29.418 62.3206 29.418ZM62.3206 28.8628C62.8748 28.8628 63.2233 28.4652 63.2233 27.9221C63.2233 27.379 62.8797 26.9814 62.3206 26.9814C61.7616 26.9814 61.4203 27.3766 61.4203 27.9221C61.4203 28.4676 61.7688 28.8628 62.3206 28.8628ZM64.0897 29.3356L65.1086 27.9148L64.1502 26.5087H64.9392L65.5394 27.4639L66.1202 26.5087H66.8898L65.9581 27.8979L66.9672 29.3331H66.1638L65.5152 28.3415L64.8569 29.3283L64.0897 29.3356ZM60.7499 18.9711C61.6841 18.9711 62.2722 18.2826 62.2722 17.371C62.2722 16.4594 61.6938 15.7709 60.7499 15.7709C59.8061 15.7709 59.2301 16.4497 59.2301 17.371C59.2301 18.2923 59.8206 18.9711 60.7499 18.9711ZM60.7499 21.5604C58.3322 21.5604 56.2776 19.8754 56.2776 17.371C56.2776 14.8666 58.3782 13.1816 60.7499 13.1816C63.1217 13.1816 65.2223 14.8617 65.2223 17.371C65.2223 19.8803 63.1241 21.5604 60.7499 21.5604ZM49.9514 21.3325V13.4095H52.9934V14.2314C53.4146 13.4653 54.2326 13.1646 55.0699 13.1646C55.3942 13.1646 55.6386 13.2107 55.9508 13.2713L55.6096 16.394C55.2151 16.234 54.7868 16.1491 54.3632 16.1491C53.5138 16.1491 52.9934 16.6073 52.9934 17.4753V21.3301H49.9514V21.3325ZM43.0008 15.4969H44.2786C45.053 15.4969 45.6484 15.2739 45.6484 14.4011C45.6484 13.5283 45.07 13.2883 44.2955 13.2883H43.0032V15.4969H43.0008ZM70.3603 21.5604C67.9426 21.5604 65.9339 19.8657 65.9339 17.371C65.9339 14.8763 68.0394 13.1816 70.4498 13.1816C71.6211 13.1816 72.7634 13.4919 73.6879 14.2338L72.3956 16.474C71.9091 16.0133 71.3331 15.7733 70.6628 15.7733C69.6294 15.7733 68.93 16.2897 68.93 17.3734C68.93 18.4572 69.6584 18.9736 70.6797 18.9736C71.4324 18.9736 72.0519 18.6729 72.5965 18.1662L73.7508 20.467C72.8167 21.1628 71.5219 21.5628 70.3603 21.5628V21.5604ZM79.2953 18.1299C79.0969 18.0983 78.9057 18.0765 78.7169 18.0668C78.1966 18.0377 77.0906 18.0668 77.0906 18.8111C77.0906 19.3057 77.5916 19.4293 77.9957 19.4293C78.8767 19.4293 79.2953 18.9978 79.2953 18.1323V18.1299ZM83.9855 21.3325V13.4119H87.0276V14.2338C87.4463 13.4677 88.2667 13.1671 89.1041 13.1671C89.4284 13.1671 89.6728 13.2131 89.985 13.2737L89.6438 16.3964C89.2493 16.2364 88.8234 16.1515 88.3974 16.1515C87.548 16.1515 87.0301 16.6097 87.0301 17.4777V21.3325H83.988H83.9855ZM94.8882 21.5604C92.335 21.5604 90.4642 19.987 90.4642 17.3565C90.4642 14.726 92.3882 13.1816 94.8592 13.1816C97.8238 13.1816 99.455 15.4436 98.8887 18.2244H93.1869C93.2328 18.7069 93.6443 18.9954 94.0678 19.1408C94.3267 19.2305 94.6196 19.2766 94.9487 19.2766C95.9022 19.2766 96.713 19.0633 97.5334 18.576L98.4143 20.5858C97.606 21.2016 95.8901 21.5604 94.8858 21.5604H94.8882ZM93.3829 16.2437H96.0281C96.0281 15.5721 95.3384 15.3151 94.7648 15.3151C94.1912 15.3151 93.4434 15.5721 93.3805 16.2437H93.3829ZM79.2711 16.3673C77.4319 16.2655 74.3389 16.4909 74.3389 18.9857C74.3389 20.5979 75.5829 21.5604 77.1221 21.5604C78.0248 21.5604 79.0267 21.3083 79.6003 20.5543V21.3301H82.185V16.6073C82.185 14.1514 80.5369 13.104 78.2474 13.104C77.0253 13.104 75.7668 13.4265 74.7189 14.0641L75.4643 16.0909C76.0887 15.623 76.9406 15.3903 77.715 15.3903C78.4435 15.3903 79.1284 15.5575 79.2711 16.3673ZM39.9296 21.3325V10.6675H44.477C46.764 10.6675 48.7195 11.8773 48.7195 14.355C48.7195 16.9758 46.7955 18.0426 44.3996 18.0426H43.0008V21.3349H39.9296V21.3325ZM12.27 10.6675H19.6732C20.5662 10.6675 21.2947 9.9353 21.2947 9.04311V1.62437C21.2947 0.729752 20.5638 0 19.6732 0H12.1176C11.0479 0 10.3581 0.288507 9.60789 1.0425L1.03823 9.62497C0.292835 10.3717 0 11.0336 0 12.1391V19.7082C0 20.6028 0.730877 21.3325 1.62148 21.3325H9.02464C9.91767 21.3325 10.6461 20.6003 10.6461 19.7082V12.2918C10.6461 11.3972 11.377 10.6675 12.2676 10.6675H12.27Z" fill="currentColor"/>
</g>
<defs>
<clipPath id="clip0_421_15151">
<rect width="99" height="32" fill="white"/>
</clipPath>
</defs>
</svg>
