<svg viewBox="0 0 36 36" fill="none" xmlns="http://www.w3.org/2000/svg">
<path fill-rule="evenodd" clip-rule="evenodd" d="M13.8264 12.0009H22.1684C23.1734 12.0009 23.9974 11.1768 23.9974 10.1717V1.82913C23.9974 0.824027 23.176 0 22.1684 0H13.6532C12.4461 0 11.672 0.325412 10.8244 1.17043L1.17035 10.8278C0.330636 11.6676 0 12.4129 0 13.6568V22.1726C0 23.1777 0.821343 24.0018 1.829 24.0018H10.171C11.176 24.0018 12 23.1803 12 22.1726V13.83C12 12.8249 12.824 12.0009 13.829 12.0009M22.171 23.9991H13.829C12.824 23.9991 12 24.8205 12 25.8283V34.1709C12 35.176 12.8213 36 13.829 36H22.3442C23.5513 36 24.3254 35.6746 25.173 34.8296L34.8297 25.1722C35.6694 24.3324 36 23.5871 36 22.3432V13.8274C36 12.8223 35.176 11.9983 34.171 11.9983H25.829C24.824 11.9983 24 12.8197 24 13.8274V22.17C24 23.1751 23.176 23.9991 22.171 23.9991Z" fill="currentColor"/>
</svg>
