<svg width="16" height="16" viewBox="0 0 16 16" fill="none" xmlns="http://www.w3.org/2000/svg">
<path d="M3.33333 2.66659C3.33333 2.31296 3.47381 1.97382 3.72386 1.72378C3.97391 1.47373 4.31304 1.33325 4.66667 1.33325H12.6667C13.0203 1.33325 13.3594 1.47373 13.6095 1.72378C13.8595 1.97382 14 2.31296 14 2.66659V13.3333C14 13.6869 13.8595 14.026 13.6095 14.2761C13.3594 14.5261 13.0203 14.6666 12.6667 14.6666H11.0667M5.33333 11.9999H5.34M3.33333 5.33325H7.33333C8.06971 5.33325 8.66667 5.93021 8.66667 6.66658V13.3333C8.66667 14.0696 8.06971 14.6666 7.33333 14.6666H3.33333C2.59695 14.6666 2 14.0696 2 13.3333V6.66658C2 5.93021 2.59695 5.33325 3.33333 5.33325Z" stroke="currentColor" stroke-width="1.5" stroke-linecap="round" stroke-linejoin="round"/>
</svg>
