<svg width="16" height="16" viewBox="0 0 16 16" fill="none" xmlns="http://www.w3.org/2000/svg">
<g clip-path="url(#clip0_854_15297)">
<path d="M11.9997 13.3335C11.9997 12.2726 11.5782 11.2552 10.8281 10.5051C10.078 9.75492 9.06054 9.3335 7.99967 9.3335M7.99967 9.3335C6.93881 9.3335 5.92139 9.75492 5.17125 10.5051C4.4211 11.2552 3.99967 12.2726 3.99967 13.3335M7.99967 9.3335C9.47243 9.3335 10.6663 8.13959 10.6663 6.66683C10.6663 5.19407 9.47243 4.00016 7.99967 4.00016C6.52691 4.00016 5.33301 5.19407 5.33301 6.66683C5.33301 8.13959 6.52691 9.3335 7.99967 9.3335ZM14.6663 8.00016C14.6663 11.6821 11.6816 14.6668 7.99967 14.6668C4.31778 14.6668 1.33301 11.6821 1.33301 8.00016C1.33301 4.31826 4.31778 1.3335 7.99967 1.3335C11.6816 1.3335 14.6663 4.31826 14.6663 8.00016Z" stroke="currentColor" stroke-width="1.5" stroke-linecap="round" stroke-linejoin="round"/>
</g>
<defs>
<clipPath id="clip0_854_15297">
<rect width="16" height="16" fill="white"/>
</clipPath>
</defs>
</svg>
