<svg width="24" height="24" viewBox="0 0 24 24" fill="none" xmlns="http://www.w3.org/2000/svg">
<g clip-path="url(#clip0_390_24975)">
<path fill-rule="evenodd" clip-rule="evenodd" d="M22.5085 8.43449C22.3794 7.40249 22.1552 6.40073 21.7525 5.49113C21.1252 4.03001 19.9698 2.87513 18.5087 2.24729C16.6995 1.44665 14.5295 1.35017 12.4727 1.30937C12.1563 1.30313 11.8439 1.30313 11.5275 1.30937C9.47075 1.35017 7.30067 1.44665 5.49155 2.24729C4.03091 2.87465 2.87555 4.03001 2.24819 5.49113C1.84547 6.40121 1.62083 7.40249 1.49219 8.43449H22.5085Z" fill="#F1F0F0"/>
<path fill-rule="evenodd" clip-rule="evenodd" d="M22.689 11.5267C22.6689 10.5043 22.6348 9.45457 22.5071 8.43457H1.49129C1.36409 9.45457 1.33001 10.5048 1.30937 11.5267C1.30313 11.8431 1.30313 12.1555 1.30937 12.4719C1.32953 13.4943 1.36361 14.544 1.49129 15.564H22.5076C22.6348 14.544 22.6689 13.4938 22.6895 12.4719C22.6958 12.1555 22.6958 11.8435 22.689 11.5267Z" fill="#2057A7"/>
<path fill-rule="evenodd" clip-rule="evenodd" d="M1.49219 15.5645C1.62131 16.5965 1.84547 17.5982 2.24819 18.5078C2.87411 19.9651 4.03235 21.1248 5.49203 21.7517C7.30115 22.5523 9.47123 22.6488 11.528 22.6896C11.6811 22.6925 11.8338 22.6944 11.9859 22.6944H12.0003H12.0152C12.1674 22.6944 12.32 22.6929 12.4731 22.6896C14.5299 22.6488 16.6995 22.5523 18.5091 21.7517C19.9703 21.1243 21.1251 19.9689 21.753 18.5078C22.1557 17.5977 22.3804 16.5965 22.509 15.5645H1.49219Z" fill="#D81F2A"/>
<path fill-rule="evenodd" clip-rule="evenodd" d="M8.3982 2.00508C4.1742 2.5374 2.48412 4.59708 2.00508 8.3982C1.74924 10.4291 1.74924 13.5712 2.00508 15.602C2.5374 19.8246 4.599 21.5166 8.3982 21.9952C10.4291 22.251 13.5712 22.251 15.602 21.9952C19.8241 21.4633 21.5166 19.4008 21.9952 15.602C22.251 13.5712 22.251 10.4291 21.9952 8.3982C21.5166 4.599 19.8246 2.53692 15.602 2.00508C13.5712 1.74924 10.4291 1.74924 8.3982 2.00508ZM8.17116 0.20844C10.3768 -0.06948 13.6235 -0.06948 15.8291 0.20844C20.9195 0.84972 23.2091 3.54876 23.7913 8.17068C24.0692 10.3763 24.0692 13.623 23.7913 15.8286C23.2091 20.4505 20.919 23.1496 15.8291 23.7908C13.6235 24.0688 10.3768 24.0688 8.17116 23.7908C3.54876 23.2091 0.8502 20.92 0.20844 15.8291C-0.06948 13.6235 -0.06948 10.3768 0.20844 8.17116C0.79164 3.5454 3.07644 0.85068 8.17116 0.20844Z" fill="#E2E8F0"/>
</g>
<defs>
<clipPath id="clip0_390_24975">
<rect width="24" height="24" fill="white"/>
</clipPath>
</defs>
</svg>
