<svg width="14" height="14" viewBox="0 0 14 14" fill="none" xmlns="http://www.w3.org/2000/svg">
<path d="M12.4207 1.69979C10.6981 2.41323 3.31197 5.47265 1.27119 6.30649C-0.0974468 6.84059 0.703773 7.34137 0.703773 7.34137C0.703773 7.34137 1.87207 7.74191 2.87363 8.04235C3.87505 8.34279 4.40915 8.00903 4.40915 8.00903L9.11595 4.83775C10.785 3.70277 10.3845 4.63741 9.98381 5.03809C9.11595 5.90609 7.68053 7.27459 6.47877 8.37625C5.94467 8.84357 6.21165 9.24411 6.44545 9.44445C7.31331 10.1789 9.68351 11.6811 9.81693 11.7812C10.5221 12.2804 11.9092 12.999 12.1202 11.4807L12.9548 6.23985C13.2219 4.47067 13.4889 2.83491 13.5222 2.36759C13.6224 1.23247 12.4207 1.69979 12.4207 1.69979Z" fill="currentColor"/>
</svg>
