<svg width="16" height="16" viewBox="0 0 16 16" fill="none" xmlns="http://www.w3.org/2000/svg">
<path d="M10.666 2.66659H11.9993C12.353 2.66659 12.6921 2.80706 12.9422 3.05711C13.1922 3.30716 13.3327 3.6463 13.3327 3.99992V13.3333C13.3327 13.6869 13.1922 14.026 12.9422 14.2761C12.6921 14.5261 12.353 14.6666 11.9993 14.6666H3.99935C3.64573 14.6666 3.30659 14.5261 3.05654 14.2761C2.80649 14.026 2.66602 13.6869 2.66602 13.3333V3.99992C2.66602 3.6463 2.80649 3.30716 3.05654 3.05711C3.30659 2.80706 3.64573 2.66659 3.99935 2.66659H5.33268M5.99935 9.33325L7.33268 10.6666L9.99935 7.99992M5.99935 1.33325H9.99935C10.3675 1.33325 10.666 1.63173 10.666 1.99992V3.33325C10.666 3.70144 10.3675 3.99992 9.99935 3.99992H5.99935C5.63116 3.99992 5.33268 3.70144 5.33268 3.33325V1.99992C5.33268 1.63173 5.63116 1.33325 5.99935 1.33325Z" stroke="currentColor" stroke-width="1.5" stroke-linecap="round" stroke-linejoin="round"/>
</svg>
