<svg width="16" height="16" viewBox="0 0 16 16" fill="none" xmlns="http://www.w3.org/2000/svg">
<path d="M12.0007 14C12.0007 12.5855 11.4387 11.229 10.4386 10.2288C9.43836 9.22857 8.08181 8.66667 6.66732 8.66667M6.66732 8.66667C5.25283 8.66667 3.89628 9.22857 2.89608 10.2288C1.89589 11.229 1.33398 12.5855 1.33398 14M6.66732 8.66667C8.50827 8.66667 10.0007 7.17428 10.0007 5.33333C10.0007 3.49238 8.50827 2 6.66732 2C4.82637 2 3.33398 3.49238 3.33398 5.33333C3.33398 7.17428 4.82637 8.66667 6.66732 8.66667ZM14.6673 13.3333C14.6673 11.0867 13.334 9 12.0007 8C12.4389 7.67118 12.7894 7.23939 13.021 6.74285C13.2527 6.2463 13.3583 5.70031 13.3287 5.1532C13.299 4.60609 13.1349 4.07472 12.851 3.60613C12.567 3.13754 12.1719 2.74617 11.7006 2.46667" stroke="currentColor" stroke-width="1.5" stroke-linecap="round" stroke-linejoin="round"/>
</svg>
