<svg width="24" height="24" viewBox="0 0 24 24" fill="none" xmlns="http://www.w3.org/2000/svg">
<path fill-rule="evenodd" clip-rule="evenodd" d="M22.509 8.43546C22.3799 7.40346 22.1557 6.4017 21.753 5.4921C21.1256 4.03098 19.9703 2.8761 18.5091 2.24826C16.7 1.44762 14.5299 1.35114 12.4731 1.31034C12.1568 1.3041 11.8443 1.3041 11.528 1.31034C9.47123 1.35114 7.30163 1.44762 5.49203 2.24826C4.03091 2.87562 2.87603 4.03098 2.24819 5.4921C1.84547 6.40218 1.62083 7.40346 1.49219 8.43546H22.509Z" fill="#0D93CE"/>
<path fill-rule="evenodd" clip-rule="evenodd" d="M22.689 11.5277C22.6689 10.5053 22.6348 9.45555 22.5071 8.43555H1.49129C1.36409 9.45555 1.33001 10.5058 1.30937 11.5277C1.30313 11.844 1.30313 12.1565 1.30937 12.4728C1.32953 13.4952 1.36361 14.545 1.49129 15.565H22.5076C22.6348 14.545 22.6689 13.4947 22.6895 12.4728C22.6958 12.1565 22.6958 11.8445 22.689 11.5277Z" fill="#F1F0F0"/>
<path fill-rule="evenodd" clip-rule="evenodd" d="M1.39648 14.5742C1.42096 14.9064 1.45216 15.2371 1.49296 15.5649H22.5093C22.5501 15.2371 22.5813 14.9064 22.6058 14.5742H1.39648Z" fill="#D81F2A"/>
<path fill-rule="evenodd" clip-rule="evenodd" d="M22.6058 9.42627C22.5813 9.09411 22.5501 8.76339 22.5093 8.43555H1.49296C1.45216 8.76339 1.42096 9.09411 1.39648 9.42627H22.6058Z" fill="#D81F2A"/>
<path fill-rule="evenodd" clip-rule="evenodd" d="M1.49219 15.5654C1.62131 16.5979 1.84547 17.5992 2.24819 18.5088C2.87411 19.9661 4.03235 21.1258 5.49203 21.7526C7.30115 22.5533 9.47123 22.6498 11.528 22.6906C11.6811 22.6934 11.8338 22.6954 11.9859 22.6954H12.0003H12.0152C12.1674 22.6954 12.32 22.6939 12.4731 22.6906C14.5299 22.6498 16.6995 22.5533 18.5091 21.7526C19.9703 21.1253 21.1251 19.9699 21.753 18.5088C22.1557 17.5987 22.3803 16.5974 22.509 15.5654H1.49219Z" fill="#6FB444"/>
<path fill-rule="evenodd" clip-rule="evenodd" d="M10.1325 6.43606L10.2544 6.81382L10.6514 6.81286L10.3298 7.04566L10.4531 7.42294L10.1325 7.18918L9.81186 7.42294L9.93522 7.04566L9.61363 6.81286L10.0106 6.81382L10.1325 6.43606ZM7.0341 2.98438C7.51314 2.98438 7.95858 3.12934 8.32866 3.37798C8.18082 3.34294 8.02626 3.32421 7.86738 3.32421C6.77058 3.32421 5.88162 4.21318 5.88162 5.30998C5.88162 6.40678 6.77058 7.29574 7.86738 7.29574C8.02626 7.29574 8.18034 7.27702 8.32866 7.24198C7.95858 7.49062 7.51314 7.63558 7.0341 7.63558C5.7501 7.63558 4.70898 6.59446 4.70898 5.31046C4.70898 4.0255 5.74962 2.98438 7.0341 2.98438ZM16.8631 3.19654L16.985 3.57429L17.3819 3.57334L17.0603 3.80614L17.1837 4.18342L16.8631 3.94965L16.5424 4.18342L16.6658 3.80614L16.3442 3.57334L16.7411 3.57429L16.8631 3.19654ZM15.1807 3.19654L15.3026 3.57429L15.6995 3.57334L15.3779 3.80614L15.5013 4.18342L15.1807 3.94965L14.86 4.18342L14.9834 3.80614L14.6618 3.57334L15.0587 3.57429L15.1807 3.19654ZM13.4978 3.19654L13.6197 3.57429L14.0167 3.57334L13.6951 3.80614L13.8184 4.18342L13.4978 3.94965L13.1771 4.18342L13.3005 3.80614L12.9789 3.57334L13.3759 3.57429L13.4978 3.19654ZM16.8631 4.81606L16.985 5.19382L17.3819 5.19286L17.0603 5.42566L17.1837 5.80294L16.8631 5.56918L16.5424 5.80294L16.6658 5.42566L16.3442 5.19286L16.7411 5.19382L16.8631 4.81606ZM15.1807 4.81606L15.3026 5.19382L15.6995 5.19286L15.3779 5.42566L15.5013 5.80294L15.1807 5.56918L14.86 5.80294L14.9834 5.42566L14.6618 5.19286L15.0587 5.19382L15.1807 4.81606ZM13.4978 4.81606L13.6197 5.19382L14.0167 5.19286L13.6951 5.42566L13.8184 5.80294L13.4978 5.56918L13.1771 5.80294L13.3005 5.42566L12.9789 5.19286L13.3759 5.19382L13.4978 4.81606ZM11.8154 4.81606L11.9373 5.19382L12.3343 5.19286L12.0127 5.42566L12.136 5.80294L11.8154 5.56918L11.4947 5.80294L11.6181 5.42566L11.2965 5.19286L11.6935 5.19382L11.8154 4.81606ZM16.8631 6.43606L16.985 6.81382L17.3819 6.81286L17.0603 7.04566L17.1837 7.42294L16.8631 7.18918L16.5424 7.42294L16.6658 7.04566L16.3442 6.81286L16.7411 6.81382L16.8631 6.43606ZM15.1807 6.43606L15.3026 6.81382L15.6995 6.81286L15.3779 7.04566L15.5013 7.42294L15.1807 7.18918L14.86 7.42294L14.9834 7.04566L14.6618 6.81286L15.0587 6.81382L15.1807 6.43606ZM13.4978 6.43606L13.6197 6.81382L14.0167 6.81286L13.6951 7.04566L13.8184 7.42294L13.4978 7.18918L13.1771 7.42294L13.3005 7.04566L12.9789 6.81286L13.3759 6.81382L13.4978 6.43606ZM11.8154 6.43606L11.9373 6.81382L12.3343 6.81286L12.0127 7.04566L12.136 7.42294L11.8154 7.18918L11.4947 7.42294L11.6181 7.04566L11.2965 6.81286L11.6935 6.81382L11.8154 6.43606Z" fill="white"/>
<path fill-rule="evenodd" clip-rule="evenodd" d="M8.3982 2.00508C4.1742 2.5374 2.48412 4.59708 2.00508 8.3982C1.74924 10.4291 1.74924 13.5712 2.00508 15.602C2.5374 19.8246 4.599 21.5166 8.3982 21.9952C10.4291 22.251 13.5712 22.251 15.602 21.9952C19.8241 21.4633 21.5166 19.4008 21.9952 15.602C22.251 13.5712 22.251 10.4291 21.9952 8.3982C21.5166 4.599 19.8246 2.53692 15.602 2.00508C13.5712 1.74924 10.4291 1.74924 8.3982 2.00508ZM8.17116 0.20844C10.3768 -0.06948 13.6235 -0.06948 15.8291 0.20844C20.9195 0.84972 23.2091 3.54876 23.7913 8.17068C24.0692 10.3763 24.0692 13.623 23.7913 15.8286C23.2091 20.4505 20.919 23.1496 15.8291 23.7908C13.6235 24.0688 10.3768 24.0688 8.17116 23.7908C3.54876 23.2091 0.8502 20.92 0.20844 15.8291C-0.06948 13.6235 -0.06948 10.3768 0.20844 8.17116C0.79164 3.5454 3.07644 0.85068 8.17116 0.20844Z" fill="#E2E8F0"/>
</svg>
