<svg width="16" height="16" viewBox="0 0 16 16" fill="none" xmlns="http://www.w3.org/2000/svg">
<path d="M7.99967 14.6668H11.9997C12.3533 14.6668 12.6924 14.5264 12.9425 14.2763C13.1925 14.0263 13.333 13.6871 13.333 13.3335V4.66683L9.99967 1.3335H3.99967C3.64605 1.3335 3.30691 1.47397 3.05687 1.72402C2.80682 1.97407 2.66634 2.31321 2.66634 2.66683V4.66683M9.33301 1.3335V4.00016C9.33301 4.35378 9.47348 4.69292 9.72353 4.94297C9.97358 5.19302 10.3127 5.3335 10.6663 5.3335H13.333M4.66634 11.0002L5.33301 14.6668L3.33301 14.0002L1.33301 14.6668L1.99967 11.0002M3.33301 11.3335C3.59565 11.3335 3.85572 11.2818 4.09837 11.1813C4.34103 11.0807 4.5615 10.9334 4.74722 10.7477C4.93294 10.562 5.08026 10.3415 5.18077 10.0989C5.28128 9.85621 5.33301 9.59614 5.33301 9.3335C5.33301 9.07085 5.28128 8.81078 5.18077 8.56813C5.08026 8.32548 4.93294 8.105 4.74722 7.91928C4.5615 7.73356 4.34103 7.58625 4.09837 7.48574C3.85572 7.38523 3.59565 7.3335 3.33301 7.3335C2.80257 7.3335 2.29387 7.54421 1.91879 7.91928C1.54372 8.29435 1.33301 8.80306 1.33301 9.3335C1.33301 9.86393 1.54372 10.3726 1.91879 10.7477C2.29387 11.1228 2.80257 11.3335 3.33301 11.3335Z" stroke="currentColor" stroke-width="1.5" stroke-linecap="round" stroke-linejoin="round"/>
</svg>
